<?xml version="1.0" standalone="no"?>
<!DOCTYPE svg PUBLIC "-//W3C//DTD SVG 20010904//EN"
 "http://www.w3.org/TR/2001/REC-SVG-20010904/DTD/svg10.dtd">
<svg version="1.0" xmlns="http://www.w3.org/2000/svg"
 width="1024.000000pt" height="444.000000pt" viewBox="0 0 1024.000000 444.000000"
 preserveAspectRatio="xMidYMid meet">

<g transform="translate(0.000000,444.000000) scale(0.100000,-0.100000)"
fill="#000000" stroke="none">
<path d="M0 2220 l0 -2220 5120 0 5120 0 0 2220 0 2220 -5120 0 -5120 0 0
-2220z m2028 1348 c-3 -41 -4 -42 -51 -54 -103 -26 -107 -41 -107 -358 l0
-256 320 0 321 0 -2 253 c-1 223 -3 259 -19 295 -19 43 -66 72 -116 72 -22 0
-24 4 -24 45 l0 45 325 0 325 0 0 -44 c0 -42 -1 -44 -34 -49 -19 -3 -47 -13
-62 -23 -54 -36 -54 -33 -54 -682 l0 -599 23 -33 c21 -32 37 -41 100 -54 25
-6 27 -10 27 -51 l0 -45 -326 0 -325 0 3 48 3 47 42 6 c52 6 89 39 103 88 5
20 10 152 10 294 l0 257 -320 0 -321 0 3 -279 c3 -264 4 -281 24 -307 24 -33
37 -40 92 -54 42 -11 42 -11 42 -55 l0 -45 -330 0 -330 0 0 44 c0 43 1 44 37
51 62 11 90 31 107 77 15 38 16 108 14 633 -3 534 -5 593 -20 621 -19 34 -71
64 -112 64 -24 0 -26 3 -26 45 l0 45 331 0 330 0 -3 -42z m2525 -445 c4 -38 7
-85 7 -107 l0 -38 54 55 c109 111 242 164 386 154 93 -6 158 -34 205 -90 64
-75 68 -98 73 -524 5 -435 2 -423 88 -444 44 -11 44 -12 44 -55 l0 -44 -285 0
-285 0 0 44 c0 42 2 45 32 52 47 10 75 31 87 66 14 38 15 606 1 662 -19 82
-77 127 -164 127 -71 0 -131 -26 -178 -79 l-38 -42 0 -319 c0 -207 4 -329 11
-350 12 -34 53 -61 94 -61 23 0 25 -3 25 -50 l0 -50 -286 0 -285 0 3 48 3 47
44 6 c52 7 77 34 86 96 8 58 4 581 -6 668 -9 81 -22 95 -86 95 l-43 0 0 45 c0
44 1 44 43 55 23 7 101 29 172 50 129 38 160 47 181 49 7 1 14 -27 17 -66z
m2564 43 c16 -4 42 -9 58 -12 17 -2 45 -9 63 -15 l32 -11 0 -144 0 -144 -53 0
-53 0 -18 55 c-21 68 -70 134 -116 157 -44 23 -136 23 -190 2 -73 -29 -101
-114 -61 -181 25 -40 79 -71 229 -133 148 -61 194 -87 248 -140 69 -67 89
-118 89 -230 0 -76 -5 -104 -22 -142 -63 -136 -249 -228 -461 -228 -77 0 -226
27 -314 56 l-48 16 0 169 0 169 49 0 48 0 22 -57 c62 -162 169 -244 298 -229
102 12 173 70 173 141 0 31 -31 90 -59 113 -22 18 -166 86 -216 102 -122 40
-243 130 -288 214 -18 34 -21 58 -22 141 0 86 3 106 23 144 60 111 191 186
352 200 63 6 180 -1 237 -13z m1603 3 c0 -15 -5 -19 -15 -15 -13 4 -15 -7 -15
-69 0 -68 -2 -75 -20 -75 -18 0 -20 7 -20 70 0 63 -2 70 -20 70 -13 0 -20 7
-20 20 0 18 7 20 55 20 49 0 55 -2 55 -21z m70 -16 c18 -57 26 -59 42 -11 12
35 20 44 41 46 l27 3 0 -90 c0 -84 -2 -91 -19 -91 -17 0 -20 8 -23 53 l-3 52
-9 -40 c-11 -53 -24 -69 -42 -54 -8 6 -14 21 -14 33 0 11 -5 28 -10 36 -7 11
-10 2 -10 -32 0 -39 -3 -48 -17 -48 -16 0 -18 10 -17 83 1 102 0 97 23 97 14
0 23 -11 31 -37z m-4978 -10 c88 -41 161 -110 197 -187 35 -73 48 -132 57
-254 l7 -92 -362 0 -361 0 0 -38 c0 -54 27 -150 56 -199 35 -60 80 -101 144
-131 49 -23 68 -26 175 -26 l120 -1 80 40 c44 21 82 41 86 42 8 5 48 -79 42
-91 -17 -40 -171 -138 -268 -171 -71 -24 -79 -25 -186 -32 -180 -11 -317 34
-420 137 -66 66 -103 133 -130 238 -64 250 -11 490 142 643 118 119 232 160
429 155 115 -2 130 -5 192 -33z m2345 17 c49 -11 98 -22 107 -26 14 -5 16 -26
16 -155 l0 -149 -50 0 c-32 0 -52 5 -55 13 -48 139 -72 175 -138 208 -32 17
-54 20 -108 17 -58 -3 -74 -8 -106 -34 -53 -43 -65 -91 -35 -147 29 -54 65
-78 214 -141 167 -71 203 -90 260 -144 85 -79 121 -186 100 -292 -15 -73 -32
-106 -82 -162 -131 -150 -432 -190 -709 -95 l-66 23 0 167 0 167 56 0 55 0 22
-69 c45 -140 142 -217 273 -215 119 1 197 65 185 154 -10 76 -69 122 -243 190
-182 72 -268 133 -313 223 -26 52 -30 71 -30 141 0 64 5 92 24 133 43 92 122
154 246 194 80 25 259 25 377 -1z m2131 -9 c97 -31 160 -70 229 -138 101 -100
153 -244 153 -422 0 -162 -48 -295 -146 -400 -67 -73 -125 -112 -212 -145
-247 -93 -547 -39 -696 126 -99 109 -146 240 -146 409 0 128 12 188 60 287 73
153 208 258 381 297 91 21 292 13 377 -14z m-6254 -1483 c24 -33 1 -51 -25
-19 -27 33 -49 13 -49 -45 l0 -44 40 0 c32 0 43 5 62 30 12 17 25 30 30 30 4
0 8 -13 8 -30 l0 -30 78 0 c56 -1 72 -3 60 -11 -16 -9 -16 -13 3 -62 27 -69
34 -75 48 -36 17 49 14 97 -6 102 -10 3 7 5 37 6 41 0 51 -2 38 -10 -10 -6
-15 -16 -12 -27 11 -31 44 -102 48 -102 3 0 12 24 22 53 9 28 19 57 21 64 3 6
-4 13 -14 16 -10 3 0 5 22 6 22 0 35 -3 29 -7 -6 -4 -28 -51 -49 -105 -20 -53
-40 -99 -44 -102 -4 -2 -18 25 -30 60 -13 36 -26 65 -30 65 -3 0 -15 -24 -25
-52 -31 -90 -36 -89 -74 9 -42 108 -53 121 -92 115 l-31 -4 3 -82 3 -81 28 0
c32 1 35 -10 8 -25 -28 -14 -57 -12 -75 6 -12 12 -16 36 -16 100 l0 84 -45 0
-45 0 0 -89 c0 -85 1 -90 23 -94 12 -2 -7 -4 -43 -4 -36 -1 -57 1 -47 4 15 4
17 17 17 93 0 61 -4 90 -12 93 -10 4 -10 8 -2 14 7 4 17 26 23 49 19 73 84
107 115 62z m2086 -143 c0 -136 2 -155 18 -164 13 -8 4 -10 -38 -10 -48 0 -53
1 -37 13 15 11 17 31 17 144 0 114 -2 132 -17 141 -15 8 -16 10 -3 15 8 2 22
7 30 9 8 3 18 6 23 6 4 1 7 -69 7 -154z m2160 0 c0 -141 2 -155 18 -156 9 0 1
-6 -18 -13 -23 -9 -37 -10 -42 -3 -4 7 -17 6 -37 -3 -64 -26 -121 15 -121 88
0 24 8 57 17 73 17 28 75 59 113 59 17 0 20 7 20 39 0 29 -5 41 -17 44 -15 3
-14 6 7 15 60 26 60 27 60 -143z m-4701 129 c27 -6 31 -10 31 -40 0 -41 -14
-44 -32 -6 -10 21 -21 28 -51 30 -31 3 -39 -1 -48 -22 -17 -37 -6 -52 60 -85
96 -49 119 -106 60 -155 -25 -21 -41 -26 -87 -26 -70 0 -81 7 -89 53 -7 46 8
48 28 5 18 -43 67 -58 104 -34 47 31 30 74 -45 111 -57 28 -80 55 -80 92 0 67
56 95 149 77z m1781 -20 c75 -44 103 -140 61 -210 -32 -53 -91 -74 -207 -73
-69 0 -92 3 -76 9 21 9 22 14 22 129 0 127 -4 151 -26 151 -8 0 -14 5 -14 11
0 8 32 10 103 7 80 -3 110 -8 137 -24z m3268 -11 c3 -35 -14 -46 -25 -15 -10
25 -23 32 -70 32 l-43 0 0 -60 0 -60 40 0 c29 0 40 4 40 15 0 8 5 15 10 15 6
0 10 -21 10 -46 0 -27 -4 -43 -10 -39 -5 3 -10 13 -10 21 0 10 -12 14 -40 14
l-40 0 0 -65 0 -65 55 0 c53 0 57 2 77 35 25 44 31 40 20 -11 l-8 -39 -114 -2
c-83 -2 -110 0 -97 8 15 9 17 27 17 140 0 122 -1 131 -20 136 -11 3 -20 9 -20
14 0 6 49 8 113 7 l112 -3 3 -32z m-1107 -63 c16 0 29 -4 29 -10 0 -5 -13 -10
-30 -10 l-30 0 0 -72 c0 -87 8 -103 45 -94 20 5 26 3 23 -6 -3 -7 -21 -17 -42
-22 -59 -15 -72 5 -68 110 2 60 -1 83 -9 82 -6 -2 -14 3 -16 10 -3 6 3 12 11
12 9 0 19 8 23 18 3 9 11 23 17 31 9 11 12 8 14 -17 3 -28 7 -32 33 -32z
m-3678 -30 c39 -44 38 -110 -2 -151 -57 -57 -161 -32 -191 45 -10 27 1 78 22
104 41 49 127 51 171 2z m772 15 c22 -21 25 -33 25 -95 0 -54 4 -72 15 -76 12
-5 13 -10 4 -20 -14 -17 -41 -18 -55 -4 -8 8 -19 8 -38 0 -37 -14 -43 -13 -66
10 -31 31 -26 67 13 90 17 11 42 20 55 20 28 0 37 21 22 50 -10 19 -18 22 -56
17 -48 -5 -58 12 -13 24 46 13 70 9 94 -16z m125 3 c0 -20 1 -20 18 -5 10 10
33 17 50 17 28 0 31 -2 23 -22 -7 -17 -15 -22 -36 -20 -43 5 -55 -13 -55 -85
0 -57 2 -65 23 -73 17 -7 11 -9 -31 -9 -47 -1 -52 1 -44 17 12 23 5 151 -9
168 -9 11 -7 14 9 14 12 0 24 5 27 10 11 17 25 11 25 -12z m252 -7 c9 -9 20
-28 23 -43 l7 -28 -77 0 -77 0 7 -27 c10 -44 43 -64 93 -60 50 5 54 -6 11 -29
-66 -34 -137 9 -146 89 -5 38 -1 48 26 80 44 49 94 56 133 18z m1031 -2 c9
-12 17 -32 17 -45 0 -23 -3 -24 -70 -24 -67 0 -70 -1 -70 -24 0 -15 11 -33 28
-46 22 -18 35 -21 70 -16 53 7 56 -9 5 -30 -45 -19 -103 -6 -128 29 -19 28
-19 90 0 127 31 59 109 75 148 29z m291 17 c18 -8 41 -24 50 -37 18 -26 21
-90 6 -120 -30 -55 -144 -65 -187 -14 -35 40 -32 112 5 147 15 15 38 28 52 31
14 2 29 5 33 6 4 0 23 -5 41 -13z m146 -1 c0 -14 3 -13 25 1 38 25 91 11 115
-29 24 -39 25 -68 4 -114 -22 -44 -50 -63 -102 -65 l-42 -1 0 -44 c0 -32 4
-43 15 -43 8 0 15 -4 15 -10 0 -6 -26 -10 -57 -10 -50 1 -56 2 -40 14 15 11
17 31 17 145 0 81 -4 131 -10 131 -20 0 -9 16 18 27 38 15 42 15 42 -2z m265
1 c25 18 54 18 76 -2 16 -14 20 -14 48 0 41 22 66 20 91 -6 17 -18 20 -35 20
-104 0 -57 4 -84 13 -87 6 -2 -9 -6 -35 -8 -27 -2 -48 -1 -48 3 0 5 5 8 10 8
6 0 10 31 10 74 0 97 -25 124 -76 85 -15 -12 -7 -151 9 -161 7 -4 -10 -8 -37
-8 -39 0 -47 3 -38 12 12 12 17 124 6 152 -7 18 -59 22 -69 6 -13 -21 -11
-142 3 -156 11 -12 5 -14 -40 -14 -46 1 -51 2 -35 14 13 11 17 29 17 90 0 47
-4 76 -11 76 -16 0 1 20 25 30 14 5 24 4 31 -5 9 -11 14 -10 30 1z m422 -15
c14 -10 22 -27 23 -43 0 -28 0 -28 -70 -28 -64 0 -70 -2 -70 -20 0 -12 12 -33
26 -47 22 -22 31 -25 70 -19 55 7 57 -7 3 -28 -80 -32 -139 7 -139 93 0 55 20
88 64 107 33 14 58 10 93 -15z m109 13 c-3 -9 -3 -14 1 -12 5 2 20 10 35 17
36 18 76 7 88 -25 6 -14 10 -58 10 -99 0 -49 4 -75 13 -78 6 -3 -10 -5 -38 -5
-27 0 -44 2 -37 5 8 3 12 30 12 84 0 77 -1 79 -27 85 -45 12 -58 -6 -61 -80
-2 -41 2 -73 9 -82 9 -12 5 -14 -30 -14 -22 0 -41 5 -41 10 0 6 5 10 10 10 6
0 10 33 10 79 0 67 -3 80 -17 84 -14 3 -9 8 17 20 45 21 54 21 46 1z m537 -15
c13 -16 17 -39 17 -95 0 -72 1 -74 25 -74 25 0 25 1 25 80 0 47 -4 80 -10 80
-19 0 -10 15 17 28 35 16 43 15 43 -3 0 -14 3 -14 30 0 71 37 96 11 102 -103
3 -57 9 -87 19 -93 9 -6 -3 -9 -35 -9 -39 0 -47 3 -38 12 16 16 15 129 -1 152
-9 12 -23 17 -42 14 l-30 -3 -3 -79 c-2 -51 1 -82 8 -86 7 -4 -21 -10 -62 -13
-44 -3 -78 -1 -86 6 -9 7 -20 7 -35 0 -53 -25 -106 12 -88 59 12 33 31 46 77
56 31 7 38 12 36 28 -7 37 -24 46 -69 40 -51 -7 -55 0 -10 19 40 19 87 12 110
-16z m1402 5 c43 -28 56 -84 30 -134 -22 -43 -53 -60 -108 -60 -120 0 -149
136 -43 201 34 22 82 19 121 -7z m125 11 c0 -13 5 -13 34 1 31 15 36 15 66 1
29 -15 35 -15 53 -2 30 21 63 19 87 -5 17 -17 20 -33 20 -100 0 -65 3 -81 18
-89 13 -8 4 -10 -38 -11 -30 0 -50 4 -44 8 13 9 24 97 17 135 -6 33 -22 42
-58 33 -24 -6 -25 -9 -25 -85 0 -54 4 -81 13 -84 6 -3 -10 -6 -37 -6 -39 -1
-47 2 -38 11 7 7 12 42 12 85 0 80 -8 91 -55 79 -24 -6 -25 -10 -25 -79 0 -43
5 -78 12 -85 9 -9 1 -12 -37 -12 -38 0 -46 3 -37 12 15 15 17 168 2 168 -20 0
-9 16 18 27 38 15 42 15 42 -2z m366 1 c5 -12 9 -12 32 0 34 18 53 18 77 0 17
-12 23 -12 47 0 70 36 102 4 107 -110 2 -45 8 -84 15 -88 6 -4 -11 -8 -38 -8
-39 0 -47 3 -38 12 7 7 12 40 12 78 0 71 -10 90 -46 90 -39 0 -49 -38 -35
-127 l8 -53 -41 0 c-31 0 -37 3 -28 12 7 7 12 40 12 79 0 75 -13 95 -55 85
-24 -6 -25 -9 -25 -85 0 -54 4 -81 13 -84 6 -3 -10 -6 -37 -6 -39 -1 -47 2
-38 11 15 15 17 168 2 168 -18 0 -10 17 13 28 30 15 37 14 43 -2z m462 -23 c6
-9 12 -27 12 -40 0 -22 -4 -23 -70 -23 -64 0 -70 -2 -70 -20 0 -12 12 -33 26
-47 22 -22 31 -25 70 -19 55 7 58 -9 7 -30 -45 -19 -103 -6 -128 29 -19 28
-19 90 1 128 29 56 117 69 152 22z m128 16 c42 33 65 16 55 -42 0 -4 -10 -2
-21 5 -37 24 -55 0 -58 -80 -2 -61 0 -71 15 -75 10 -3 -7 -5 -36 -6 -43 -1
-52 2 -43 11 19 19 16 152 -4 169 -14 11 -11 14 23 24 34 10 38 9 41 -7 3 -17
5 -17 28 1z m223 15 c21 -4 31 -12 31 -25 0 -23 -19 -35 -26 -15 -3 8 -19 18
-35 21 -85 19 -119 -102 -43 -151 21 -15 33 -16 65 -7 54 14 53 -9 -1 -31 -50
-20 -54 -20 -95 0 -40 19 -60 61 -52 110 7 43 30 72 72 90 35 15 42 16 84 8z
m194 -21 c9 -9 17 -29 17 -45 0 -28 0 -28 -64 -28 -36 0 -67 -4 -71 -9 -10
-17 17 -59 46 -71 15 -7 41 -9 58 -5 44 9 40 -12 -5 -31 -68 -28 -131 9 -141
83 -13 97 92 166 160 106z m-5086 9 c12 -7 33 -54 33 -73 0 -5 -31 -9 -70 -9
-64 0 -70 -2 -70 -20 0 -12 12 -33 26 -47 21 -21 32 -25 65 -20 46 6 51 -6 9
-28 -38 -20 -58 -19 -97 5 -55 33 -61 123 -12 176 17 18 33 24 63 24 23 0 46
-4 53 -8z m113 -2 c-12 -7 -11 -17 9 -67 13 -32 27 -62 31 -66 8 -9 50 91 50
118 0 7 -6 16 -12 18 -7 3 7 6 32 6 31 0 40 -2 30 -9 -9 -5 -36 -54 -60 -109
-25 -56 -48 -100 -53 -98 -4 1 -27 45 -50 97 -22 52 -48 100 -57 107 -12 10
-5 12 40 13 37 0 50 -3 40 -10z m3286 -6 c-3 -9 -6 -20 -6 -26 0 -6 -8 -4 -18
5 -10 10 -35 17 -55 17 -60 0 -85 -57 -52 -120 17 -32 57 -45 106 -35 39 9 32
-8 -13 -31 -70 -36 -148 13 -148 93 0 38 6 51 34 79 31 31 39 34 96 34 53 0
61 -2 56 -16z m-225 -59 c39 -13 17 -25 -45 -25 -63 0 -100 15 -54 22 50 7 82
8 99 3z"/>
<path d="M3498 3060 c-47 -14 -88 -50 -113 -101 -26 -51 -53 -185 -42 -212 5
-13 34 -16 196 -17 l191 -1 0 98 c0 74 -5 108 -19 138 -40 87 -120 123 -213
95z"/>
<path d="M7997 3046 c-126 -45 -177 -173 -176 -446 0 -165 11 -243 48 -324 57
-131 145 -178 264 -145 119 33 187 193 187 442 0 275 -72 442 -205 476 -55 14
-71 13 -118 -3z"/>
<path d="M6153 1535 c-12 -9 -25 -31 -29 -49 -12 -64 17 -106 72 -106 l34 0 0
85 0 85 -28 0 c-15 0 -37 -7 -49 -15z"/>
<path d="M3210 1505 l0 -135 45 0 c61 0 93 17 116 62 50 99 -15 208 -125 208
l-36 0 0 -135z"/>
<path d="M1720 1530 c-42 -42 -16 -170 35 -170 47 0 72 49 62 123 -9 64 -57
87 -97 47z"/>
<path d="M2539 1431 c-20 -16 -22 -21 -10 -35 8 -10 25 -16 40 -14 22 3 26 8
27 36 1 38 -20 43 -57 13z"/>
<path d="M2897 1532 c-29 -32 -21 -42 33 -42 43 0 49 2 43 18 -16 45 -48 55
-76 24z"/>
<path d="M3915 1519 c-9 -17 -14 -33 -11 -36 7 -8 96 7 96 15 0 4 -7 18 -16
30 -22 31 -51 28 -69 -9z"/>
<path d="M4230 1535 c-34 -40 -19 -158 21 -170 46 -15 79 24 79 91 0 54 -25
94 -59 94 -16 0 -34 -7 -41 -15z"/>
<path d="M4462 1448 c3 -78 4 -83 26 -86 35 -5 70 23 77 62 13 65 -15 106 -71
106 l-35 0 3 -82z"/>
<path d="M5046 1528 c-27 -38 -20 -48 29 -48 40 0 45 2 45 23 0 47 -47 63 -74
25z"/>
<path d="M5708 1439 c-37 -21 -9 -77 32 -64 15 5 20 15 20 41 0 36 -17 44 -52
23z"/>
<path d="M7093 1542 c-39 -25 -39 -139 0 -167 50 -35 87 -2 87 80 0 76 -41
117 -87 87z"/>
<path d="M8035 1521 c-19 -37 -8 -45 45 -36 43 7 50 23 22 48 -27 25 -50 21
-67 -12z"/>
<path d="M8596 1534 c-31 -31 -14 -54 40 -54 29 0 40 21 24 49 -13 25 -42 27
-64 5z"/>
<path d="M3516 1528 c-31 -44 -20 -54 43 -42 33 7 41 30 19 52 -19 19 -45 14
-62 -10z"/>
</g>
</svg>
