<?xml version="1.0" standalone="no"?>
<!DOCTYPE svg PUBLIC "-//W3C//DTD SVG 20010904//EN"
 "http://www.w3.org/TR/2001/REC-SVG-20010904/DTD/svg10.dtd">
<svg version="1.0" xmlns="http://www.w3.org/2000/svg"
 width="1024.000000pt" height="526.000000pt" viewBox="0 0 1024.000000 526.000000"
 preserveAspectRatio="xMidYMid meet">

<g transform="translate(0.000000,526.000000) scale(0.100000,-0.100000)"
fill="#000000" stroke="none">
<path d="M1370 3896 l0 -44 46 -7 c29 -4 57 -17 77 -35 l32 -28 3 -609 c2
-423 0 -620 -8 -646 -13 -46 -59 -77 -112 -77 l-38 0 0 -50 0 -50 330 0 330 0
0 50 c0 50 0 50 -32 50 -39 0 -91 30 -110 62 -10 17 -14 95 -16 300 l-3 277
321 3 321 3 -3 -292 -3 -293 -27 -26 c-19 -20 -39 -28 -77 -32 l-51 -5 0 -48
0 -49 325 0 325 0 0 50 c0 50 0 50 -32 50 -42 0 -96 33 -108 66 -7 17 -9 252
-8 646 l3 620 31 27 c18 16 48 31 72 35 l42 6 0 45 0 45 -325 0 -325 0 0 -44
c0 -46 11 -56 67 -56 13 0 37 -13 55 -29 l33 -29 3 -276 3 -276 -321 0 -320 0
0 243 c0 133 5 258 10 278 13 47 49 79 106 94 46 11 47 13 48 51 l1 39 -332 3
-333 2 0 -44z"/>
<path d="M3441 3480 c-270 -71 -424 -308 -408 -625 18 -345 238 -550 572 -532
55 3 127 12 160 21 85 23 197 83 258 137 l51 46 -24 45 -24 46 -37 -24 c-110
-69 -295 -89 -413 -44 -72 28 -148 99 -178 168 -27 60 -48 138 -48 180 l0 32
360 0 360 0 0 85 c0 212 -82 363 -235 436 -111 53 -260 64 -394 29z m192 -111
c80 -41 111 -114 105 -244 l-3 -70 -192 -3 -193 -2 0 52 c0 120 67 245 143
267 45 13 115 13 140 0z"/>
<path d="M4395 3460 c-233 -61 -246 -65 -246 -73 1 -4 1 -23 1 -42 0 -33 2
-35 35 -35 54 0 84 -19 95 -59 14 -52 13 -723 -1 -755 -12 -26 -45 -43 -94
-48 -28 -3 -30 -6 -33 -50 l-3 -48 290 0 291 0 0 50 0 50 -35 0 c-24 0 -44 8
-59 23 -32 32 -37 110 -33 439 4 225 6 261 22 285 41 65 114 102 200 103 75 0
115 -23 147 -82 22 -42 23 -53 26 -338 2 -162 1 -313 -3 -337 -8 -58 -31 -83
-83 -90 l-42 -6 0 -48 0 -49 290 0 290 0 0 29 c0 16 2 36 5 43 4 11 -9 18 -50
27 -92 21 -90 10 -92 401 -3 427 -4 444 -36 506 -52 102 -134 144 -283 144
-141 0 -282 -61 -365 -159 l-36 -41 -7 37 c-3 21 -6 66 -6 101 0 52 -3 62 -17
62 -10 -1 -85 -18 -168 -40z"/>
<path d="M5875 3490 c-228 -49 -351 -200 -316 -388 26 -140 101 -210 337 -312
117 -51 159 -75 196 -111 43 -40 48 -50 48 -88 0 -60 -22 -95 -77 -122 -70
-35 -165 -36 -232 -3 -27 14 -64 42 -82 61 -34 40 -89 147 -89 176 0 14 -9 17
-55 17 l-55 0 0 -160 0 -161 43 -18 c95 -41 178 -55 322 -55 108 -1 154 4 200
18 126 38 225 118 268 214 30 68 29 189 -1 257 -44 96 -132 163 -302 230 -171
66 -227 101 -256 157 -25 48 -18 85 24 130 35 37 45 42 95 46 31 2 77 1 102
-2 65 -10 125 -70 155 -153 l23 -63 48 0 49 0 0 144 0 144 -92 22 c-101 25
-284 35 -353 20z"/>
<path d="M6833 3481 c-135 -37 -213 -94 -260 -189 -24 -48 -28 -70 -28 -137 0
-67 5 -89 28 -137 46 -93 141 -162 322 -233 159 -62 235 -125 235 -196 0 -87
-59 -136 -179 -146 -120 -10 -210 49 -272 181 -16 33 -29 69 -29 79 0 14 -9
17 -55 17 l-55 0 0 -161 0 -160 37 -15 c135 -57 347 -79 479 -49 154 34 251
101 304 209 27 54 32 76 33 142 2 181 -82 264 -388 385 -89 35 -119 53 -157
91 -41 40 -48 53 -48 85 0 82 63 133 165 133 120 0 184 -45 225 -159 l23 -61
51 0 51 0 0 142 0 142 -95 24 c-135 33 -292 38 -387 13z"/>
<path d="M7974 3485 c-147 -26 -231 -70 -323 -171 -61 -66 -90 -121 -121 -223
-20 -65 -22 -88 -17 -204 7 -175 32 -250 123 -369 43 -55 144 -131 209 -156
56 -22 170 -42 243 -42 281 0 499 147 583 395 32 94 34 308 5 395 -66 196
-196 319 -381 364 -92 22 -228 27 -321 11z m194 -131 c77 -32 125 -102 162
-235 29 -106 29 -362 0 -467 -36 -131 -96 -195 -196 -208 -99 -12 -181 46
-237 168 -32 72 -50 220 -44 372 5 163 27 247 78 310 58 70 155 94 237 60z"/>
<path d="M8610 3485 c0 -8 9 -15 20 -15 17 0 19 -8 22 -72 2 -57 6 -73 18 -73
12 0 15 15 15 73 0 68 1 72 23 72 13 0 22 6 22 15 0 12 -13 15 -60 15 -47 0
-60 -3 -60 -15z"/>
<path d="M8740 3409 c0 -68 3 -90 13 -86 7 2 12 22 13 45 1 58 9 61 25 7 14
-47 26 -57 35 -27 3 9 11 31 17 47 l12 30 5 -49 c3 -27 11 -51 18 -54 9 -3 12
19 12 87 0 83 -2 91 -19 91 -15 0 -23 -12 -34 -47 l-14 -48 -22 48 c-15 32
-28 47 -41 47 -18 0 -20 -7 -20 -91z"/>
<path d="M1962 1995 c-20 -17 -33 -38 -37 -65 -4 -25 -12 -40 -21 -40 -8 0
-14 -4 -14 -10 0 -5 7 -10 15 -10 24 0 22 -155 -2 -169 -14 -8 -4 -10 40 -11
36 0 56 4 52 10 -3 6 -13 10 -21 10 -11 0 -14 18 -14 86 l0 86 30 -4 c17 -3
30 -1 30 3 0 4 -12 9 -27 11 -26 3 -28 6 -27 46 1 56 16 72 44 47 23 -21 45
-9 34 18 -9 25 -48 21 -82 -8z"/>
<path d="M4100 2013 c-8 -2 -22 -7 -30 -9 -13 -5 -12 -7 3 -15 15 -9 17 -27
17 -141 0 -113 -2 -133 -17 -144 -16 -12 -11 -13 35 -14 30 0 52 4 52 11 0 5
-4 8 -9 5 -17 -11 -21 25 -21 170 0 79 -3 144 -7 143 -5 0 -15 -3 -23 -6z"/>
<path d="M6238 2008 c-30 -10 -38 -28 -13 -28 11 0 15 -11 15 -40 0 -40 0 -40
-38 -40 -45 0 -76 -20 -98 -62 -19 -38 -14 -101 12 -129 17 -19 66 -25 98 -13
25 10 19 24 -10 24 -14 0 -34 5 -44 10 -22 12 -35 67 -26 105 9 34 49 59 81
51 25 -6 26 -8 24 -97 -1 -49 1 -92 4 -95 7 -8 77 7 77 16 0 4 -8 7 -17 6 -16
-1 -18 13 -21 152 -1 83 -6 152 -10 151 -4 0 -19 -5 -34 -11z"/>
<path d="M1480 1987 c-37 -19 -52 -57 -39 -96 9 -24 25 -39 68 -61 89 -45 102
-74 50 -113 -24 -17 -31 -18 -63 -7 -26 8 -41 21 -51 43 l-13 32 -1 -41 c-1
-48 9 -54 92 -54 40 0 53 5 78 29 53 54 33 103 -61 151 -65 33 -82 60 -54 91
30 33 104 18 104 -21 0 -10 5 -22 10 -25 6 -4 10 8 10 30 0 29 -5 37 -26 45
-34 13 -74 12 -104 -3z"/>
<path d="M3150 1988 c0 -4 6 -8 14 -8 18 0 26 -52 26 -168 0 -86 -2 -94 -20
-99 -11 -3 -20 -9 -20 -14 0 -15 174 -10 211 5 121 51 132 212 18 268 -37 19
-229 32 -229 16z m180 -26 c71 -35 98 -116 64 -188 -21 -43 -59 -64 -119 -64
l-45 0 0 135 0 135 33 0 c17 0 48 -8 67 -18z"/>
<path d="M6430 1990 c-24 -8 -24 -8 -2 -9 22 -1 22 -3 22 -135 0 -130 -1 -134
-22 -142 -15 -5 18 -9 96 -11 65 -2 120 -2 121 -1 2 2 6 23 9 48 5 38 4 42 -6
26 -31 -47 -48 -56 -98 -56 l-50 0 0 65 0 65 30 0 c19 0 34 -7 42 -20 20 -32
28 -23 28 33 0 51 -1 52 -18 31 -9 -12 -32 -24 -49 -26 l-33 -5 0 64 0 63 38
0 c41 0 82 -23 82 -46 0 -8 5 -14 10 -14 6 0 10 16 10 35 l0 35 -79 0 c-44 0
-85 2 -93 4 -7 2 -24 0 -38 -4z"/>
<path d="M2085 1931 c-3 -11 -15 -23 -26 -26 -21 -7 -26 -25 -6 -25 10 0 12
-15 9 -57 -2 -32 0 -74 5 -93 8 -31 13 -35 44 -38 21 -2 40 3 47 10 9 11 5 14
-16 13 -26 0 -27 2 -33 75 -3 41 -4 78 -2 83 2 4 20 7 38 7 41 0 50 -12 90
-118 16 -40 33 -71 39 -69 5 2 19 29 30 60 12 31 23 57 26 57 4 0 15 -26 26
-57 12 -31 25 -58 30 -60 5 -2 18 20 29 49 11 29 27 71 35 93 14 35 50 62 50
37 0 -5 20 -7 46 -4 33 3 49 1 55 -9 14 -22 11 -49 -6 -49 -30 0 -94 -33 -100
-51 -17 -52 34 -90 85 -64 16 8 31 11 34 6 3 -4 45 -9 93 -9 79 -1 86 0 69 13
-15 11 -19 28 -20 75 -1 68 10 82 56 73 25 -5 28 -3 28 21 0 33 -21 34 -63 4
l-30 -22 6 23 c5 20 3 22 -26 15 -42 -8 -44 -12 -22 -28 16 -11 17 -22 11 -81
-4 -38 -9 -72 -11 -76 -3 -4 -16 -2 -30 4 -23 11 -25 17 -25 80 0 54 -4 71
-20 87 -21 21 -63 26 -103 11 -14 -6 -28 -7 -32 -3 -9 9 -75 9 -75 0 0 -5 5
-8 10 -8 15 0 12 -24 -11 -77 l-21 -48 -19 50 c-11 28 -17 59 -15 71 5 17 0
20 -29 21 -39 1 -40 0 -23 -26 9 -15 8 -28 -6 -65 -10 -25 -21 -46 -25 -46 -4
0 -12 19 -18 43 -7 23 -15 50 -18 60 -5 12 -2 17 9 17 9 0 16 5 16 11 0 7 -27
10 -80 7 l-80 -3 0 27 c0 32 -16 37 -25 9z m522 -168 c-3 -34 -6 -38 -34 -41
-31 -3 -50 18 -37 40 5 7 56 34 71 38 1 0 1 -17 0 -37z"/>
<path d="M5471 1928 c-7 -14 -23 -31 -35 -36 -17 -9 -18 -11 -3 -11 15 -1 17
-12 17 -79 0 -102 22 -130 88 -108 27 9 30 26 2 19 -37 -10 -50 14 -50 93 l0
74 33 1 32 1 -30 7 c-23 5 -31 13 -35 35 l-5 29 -14 -25z"/>
<path d="M1697 1877 c-33 -27 -47 -71 -35 -114 20 -75 122 -100 179 -44 43 43
41 101 -5 147 -42 42 -95 47 -139 11z m89 5 c35 -23 46 -120 18 -160 -36 -52
-92 -12 -101 72 -5 38 -2 48 20 70 27 27 43 31 63 18z"/>
<path d="M2902 1884 c-56 -39 -65 -122 -17 -170 32 -32 103 -34 130 -4 19 21
19 21 -22 14 -23 -3 -49 -1 -61 5 -20 11 -45 65 -35 75 4 3 35 6 70 6 60 0 63
1 63 24 0 30 -43 66 -79 66 -15 0 -37 -7 -49 -16z m74 -19 c21 -32 11 -45 -37
-45 -44 0 -52 19 -22 52 22 25 39 23 59 -7z"/>
<path d="M3532 1890 c-26 -11 -52 -65 -52 -109 0 -17 11 -42 26 -60 21 -26 33
-31 69 -31 28 0 51 7 66 20 l24 20 -45 -6 c-37 -5 -50 -2 -72 16 -17 13 -28
31 -28 46 0 23 3 24 70 24 39 0 70 2 70 4 0 17 -33 75 -45 80 -23 8 -55 7 -83
-4z m73 -40 c0 -22 -5 -25 -42 -28 -45 -3 -51 4 -32 39 8 15 19 19 42 17 27
-2 32 -7 32 -28z"/>
<path d="M3655 1892 c-2 -2 4 -12 15 -21 10 -9 35 -52 54 -96 19 -44 39 -81
44 -83 5 -1 21 29 36 68 15 38 38 85 50 103 l23 33 -41 2 c-36 2 -39 0 -23
-12 21 -17 22 -12 -9 -82 l-26 -59 -26 64 c-18 45 -22 66 -14 69 7 2 12 7 12
11 0 8 -87 11 -95 3z"/>
<path d="M3912 1875 c-37 -31 -48 -81 -28 -129 8 -19 23 -39 34 -45 33 -17 87
-13 113 9 l24 20 -45 -6 c-52 -7 -84 13 -94 59 l-6 27 71 0 71 0 -6 28 c-15
62 -82 81 -134 37z m87 -17 c12 -32 6 -38 -38 -38 -47 0 -53 6 -39 36 15 33
65 34 77 2z"/>
<path d="M4217 1880 c-36 -29 -50 -83 -33 -125 19 -44 52 -65 103 -65 59 0 93
31 100 93 5 43 3 49 -30 82 -28 28 -43 35 -75 35 -24 0 -49 -8 -65 -20z m102
-16 c42 -53 19 -164 -33 -164 -38 0 -61 35 -61 95 0 86 51 123 94 69z"/>
<path d="M4425 1886 c-24 -10 -26 -13 -12 -19 15 -6 17 -22 17 -128 0 -104 -3
-124 -17 -135 -16 -12 -11 -13 35 -14 28 0 52 5 52 10 0 6 -7 10 -15 10 -11 0
-15 11 -15 40 0 40 0 40 40 40 91 0 143 109 85 178 -29 34 -60 41 -98 21 -16
-9 -22 -9 -25 0 -5 14 -9 13 -47 -3z m132 -42 c21 -21 25 -32 20 -66 -7 -53
-32 -80 -71 -76 l-31 3 -3 74 c-3 77 3 91 41 91 10 0 30 -12 44 -26z"/>
<path d="M4663 1893 c-23 -4 -33 -23 -13 -23 6 0 10 -33 10 -80 0 -65 -3 -81
-17 -89 -14 -8 -5 -10 36 -11 47 0 52 2 37 13 -14 10 -16 25 -14 82 l3 70 34
3 c44 4 52 -9 50 -86 -2 -54 -5 -65 -23 -72 -15 -6 -4 -9 39 -9 52 0 58 1 43
13 -14 10 -18 28 -18 84 0 67 1 70 26 76 42 11 54 -8 54 -85 0 -54 -4 -70 -17
-78 -14 -8 -6 -10 35 -11 28 0 52 5 52 10 0 6 -4 10 -10 10 -6 0 -10 29 -10
68 0 37 -6 78 -13 92 -15 31 -54 37 -95 16 -26 -14 -31 -14 -42 -1 -16 19 -51
19 -76 0 -25 -19 -34 -19 -34 0 0 8 -3 14 -7 14 -5 -1 -18 -4 -30 -6z"/>
<path d="M5047 1889 c-43 -25 -60 -106 -32 -158 21 -42 99 -56 143 -25 27 19
20 39 -9 23 -24 -12 -73 -3 -94 18 -8 8 -15 25 -15 39 0 23 3 24 65 24 61 0
65 1 65 23 0 52 -72 85 -123 56z m68 -19 c27 -29 13 -50 -35 -50 -46 0 -53 17
-20 50 25 25 32 25 55 0z"/>
<path d="M5230 1893 c-8 -2 -22 -7 -30 -9 -13 -5 -12 -7 3 -15 14 -8 17 -24
17 -81 0 -56 -4 -74 -17 -84 -16 -12 -11 -13 37 -13 48 0 53 1 38 13 -14 10
-18 28 -18 80 0 62 2 67 26 76 47 18 64 -1 64 -77 0 -51 -4 -69 -17 -79 -16
-12 -11 -13 37 -13 48 0 53 1 38 13 -14 11 -18 29 -18 89 0 104 -28 129 -100
92 -27 -14 -30 -14 -30 0 0 16 -5 17 -30 8z"/>
<path d="M5695 1893 c-44 -11 -37 -23 12 -23 37 0 52 -4 57 -16 12 -32 5 -40
-45 -53 -59 -15 -80 -44 -61 -86 9 -19 19 -25 42 -25 17 0 40 5 50 10 10 6 21
6 24 1 3 -4 42 -9 87 -9 79 -1 81 -1 65 17 -13 14 -16 34 -14 82 3 58 5 63 31
72 44 14 57 -4 57 -84 0 -54 -4 -70 -17 -78 -14 -8 -6 -10 35 -11 28 0 52 5
52 10 0 6 -6 10 -13 10 -9 0 -14 23 -15 83 -4 107 -29 130 -104 91 -16 -9 -27
-11 -24 -6 11 17 -11 23 -41 11 -15 -6 -22 -13 -15 -16 12 -5 18 -153 7 -165
-4 -3 -17 -1 -30 6 -23 10 -25 17 -25 79 0 94 -30 120 -115 100z m73 -133 c2
-24 -3 -32 -20 -39 -29 -11 -58 4 -58 29 0 21 25 39 55 40 16 0 21 -7 23 -30z"/>
<path d="M6904 1890 c-65 -26 -84 -117 -36 -170 22 -26 35 -31 71 -32 30 0 49
5 63 20 l20 20 -45 -5 c-40 -5 -49 -2 -72 22 -24 23 -27 32 -22 68 8 62 63 89
102 50 14 -13 18 -14 25 -2 21 32 -50 52 -106 29z"/>
<path d="M7069 1872 c-23 -21 -32 -39 -36 -73 -5 -41 -2 -48 27 -77 25 -25 40
-32 71 -32 57 0 95 23 109 65 35 107 -88 191 -171 117z m106 -7 c44 -43 28
-149 -23 -162 -57 -14 -93 87 -57 157 19 37 47 39 80 5z"/>
<path d="M7297 1893 c-11 -3 -16 -11 -13 -21 11 -38 9 -151 -4 -166 -11 -14
-7 -16 36 -16 27 0 44 4 37 8 -6 4 -13 40 -16 80 -5 71 -5 73 19 83 17 6 32 5
45 -1 27 -15 28 -136 2 -156 -16 -12 -11 -13 37 -13 42 0 51 2 38 10 -15 8
-18 24 -18 80 0 63 2 70 23 78 24 9 48 4 59 -13 15 -22 9 -119 -9 -138 -15
-17 -14 -18 35 -18 29 0 52 5 52 10 0 6 -7 10 -15 10 -12 0 -15 15 -15 73 0
85 -16 117 -58 117 -15 0 -38 -7 -50 -16 -20 -14 -24 -14 -38 0 -19 20 -54 20
-80 1 -25 -19 -35 -19 -28 0 6 15 -4 17 -39 8z"/>
<path d="M7663 1893 c-24 -5 -30 -18 -13 -28 6 -3 10 -38 10 -77 0 -56 -4 -74
-17 -84 -16 -12 -11 -13 37 -13 49 0 53 1 37 13 -15 12 -17 26 -15 82 l3 69
33 3 c26 3 34 -1 41 -20 13 -34 8 -112 -8 -131 -12 -16 -9 -17 40 -17 47 1 52
2 37 14 -14 10 -18 28 -18 84 0 67 1 70 26 76 42 11 54 -8 54 -83 0 -39 -5
-72 -12 -79 -9 -9 0 -12 43 -12 47 1 52 2 37 14 -14 10 -18 28 -18 70 0 78
-21 126 -55 126 -14 0 -39 -7 -54 -15 -26 -13 -30 -13 -41 0 -16 19 -43 19
-82 -1 -28 -15 -30 -15 -25 0 6 16 2 17 -40 9z"/>
<path d="M8044 1882 c-81 -65 -45 -192 54 -192 25 0 48 7 63 20 l24 20 -51 -6
c-47 -6 -52 -4 -72 21 -12 15 -22 36 -22 46 0 17 8 19 70 19 73 0 79 4 58 43
-25 48 -84 62 -124 29z m80 -25 c13 -22 -5 -37 -46 -37 -33 0 -42 13 -28 40
14 26 58 24 74 -3z"/>
<path d="M8220 1888 c-15 -6 -20 -12 -12 -15 8 -3 12 -30 12 -83 0 -65 -3 -81
-17 -89 -14 -8 -3 -10 45 -11 38 0 61 4 57 10 -3 5 -12 7 -20 3 -10 -3 -15 1
-16 13 -6 130 -2 140 53 136 25 -2 29 1 26 20 -4 32 -33 34 -63 4 l-25 -25 0
24 c0 27 -3 29 -40 13z"/>
<path d="M8414 1881 c-41 -25 -57 -71 -44 -122 6 -21 20 -45 33 -54 31 -22
100 -19 128 5 l24 20 -45 -6 c-37 -5 -50 -2 -72 16 -52 41 -29 140 32 140 18
0 34 -8 43 -21 l15 -21 7 22 c5 15 2 26 -6 31 -24 15 -83 10 -115 -10z"/>
<path d="M8588 1870 c-28 -29 -30 -35 -26 -87 4 -44 10 -59 29 -74 41 -32 139
-19 139 19 0 7 -11 7 -35 -1 -31 -9 -39 -8 -63 10 -15 11 -28 32 -30 46 -3 27
-3 27 62 27 62 0 66 1 66 23 0 33 -40 67 -79 67 -23 0 -41 -9 -63 -30z m92 3
c0 -5 3 -18 6 -30 6 -21 3 -23 -40 -23 -38 0 -46 3 -46 18 0 10 5 23 12 30 13
13 68 17 68 5z"/>
<path d="M6687 1823 c-17 -17 -2 -23 58 -23 51 0 65 3 65 15 0 12 -13 15 -58
15 -32 0 -62 -3 -65 -7z"/>
</g>
</svg>
