<?xml version="1.0" standalone="no"?>
<!DOCTYPE svg PUBLIC "-//W3C//DTD SVG 20010904//EN"
 "http://www.w3.org/TR/2001/REC-SVG-20010904/DTD/svg10.dtd">
<svg version="1.0" xmlns="http://www.w3.org/2000/svg"
 width="164.000000pt" height="160.000000pt" viewBox="0 0 164.000000 160.000000"
 preserveAspectRatio="xMidYMid meet">

<g transform="translate(0.000000,160.000000) scale(0.100000,-0.100000)"
fill="#000000" stroke="none">
<path d="M5 800 c0 -443 1 -624 2 -403 2 222 2 584 0 805 -1 222 -2 41 -2
-402z"/>
<path d="M686 1550 c-56 -53 -107 -136 -125 -207 -7 -23 -15 -84 -20 -135 -8
-82 -7 -97 10 -130 10 -20 23 -39 29 -43 13 -8 13 -52 -1 -60 -6 -4 -9 -38 -8
-83 l2 -76 -125 -61 c-165 -81 -182 -95 -222 -173 -47 -94 -132 -369 -148
-485 l-15 -97 298 0 297 0 10 28 10 27 1 -27 c1 -26 4 -28 45 -28 26 0 46 5
49 13 4 9 6 9 6 0 1 -10 94 -13 431 -13 l430 0 0 800 0 800 -144 0 -144 0 -7
-97 c-12 -193 -26 -371 -40 -523 -9 -85 -18 -183 -21 -217 l-6 -62 -71 35
c-76 38 -127 79 -127 101 0 7 -5 13 -11 13 -14 0 -6 34 27 117 36 92 33 180
-10 324 -19 63 -39 132 -45 155 -16 60 -66 130 -103 143 -17 6 -69 11 -115 11
l-84 0 -53 -50z m211 -102 c21 -19 23 -30 21 -78 l-3 -55 -37 -3 c-20 -2 -42
-10 -49 -18 -11 -14 -8 -15 33 -9 29 4 48 3 52 -4 5 -7 -3 -11 -19 -11 -20 0
-26 -4 -23 -17 2 -10 8 -18 13 -18 6 0 18 -5 29 -11 16 -10 17 -20 11 -107 -6
-75 -11 -100 -26 -113 -11 -9 -19 -25 -19 -34 0 -25 -20 -40 -40 -30 -11 6
-31 5 -54 -1 -27 -8 -41 -7 -52 2 -20 16 -18 -5 2 -25 8 -9 25 -18 37 -20 12
-3 42 -8 67 -13 l45 -8 -39 -23 -39 -23 38 -39 c36 -37 37 -40 25 -69 -9 -22
-19 -31 -35 -31 -21 0 -24 6 -30 63 -8 81 -13 97 -30 97 -23 0 -85 89 -85 122
0 16 -7 43 -16 59 -8 17 -18 61 -21 97 -4 57 -2 70 14 89 10 12 27 21 37 20
11 -1 21 4 24 11 3 10 -5 13 -31 11 -38 -4 -53 3 -43 20 4 6 19 6 42 -1 21 -5
40 -6 45 -1 5 5 -11 14 -40 22 l-49 12 9 41 c15 63 36 97 67 103 15 3 38 10
52 15 37 13 90 4 117 -22z m40 -543 c-4 -8 -14 -15 -23 -15 -16 0 -16 2 1 20
20 22 31 20 22 -5z m-277 -26 c0 -10 -7 -19 -15 -19 -9 0 -18 -7 -21 -15 -7
-16 -34 -21 -34 -6 0 15 53 70 62 65 4 -3 8 -14 8 -25z m390 -4 c0 -8 -7 -15
-15 -15 -26 0 -18 20 13 29 1 1 2 -6 2 -14z m-180 -315 c14 -11 29 -20 33 -20
5 0 22 -9 37 -20 21 -15 30 -17 33 -8 4 10 8 10 16 -2 5 -8 8 -17 5 -21 -2 -4
0 -10 6 -14 5 -3 10 -2 10 3 0 13 29 24 41 16 5 -3 3 -15 -6 -27 -19 -28 -19
-57 0 -57 8 0 15 4 15 9 0 12 66 19 85 8 21 -12 19 -70 -3 -91 -18 -15 -21
-15 -45 4 -14 11 -32 20 -40 20 -8 0 -19 6 -25 13 -15 18 -58 19 -72 2 -14
-17 -32 -11 -24 9 3 7 -2 19 -11 26 -8 7 -15 16 -15 20 0 13 38 18 48 8 6 -6
16 -7 23 -2 16 10 -27 28 -59 25 -13 -2 -32 5 -42 14 -11 10 -28 15 -38 13
-15 -4 -19 1 -21 34 -3 61 8 70 49 38z m-169 -87 c11 -12 8 -13 -17 -7 -16 4
-37 7 -46 6 -10 0 -18 3 -18 8 0 14 69 9 81 -7z m-91 3 c0 -3 -4 -8 -10 -11
-5 -3 -10 -1 -10 4 0 6 5 11 10 11 6 0 10 -2 10 -4z m-130 -81 c-24 -25 -48
-45 -52 -45 -14 0 -9 24 12 58 16 25 26 32 52 32 l32 0 -44 -45z m160 10 c-7
-8 -10 -22 -6 -30 3 -8 3 -29 0 -45 -5 -23 -11 -29 -28 -26 -13 2 -22 12 -24
27 -2 13 -9 30 -14 36 -8 10 1 18 33 32 54 24 54 24 39 6z m177 -132 c-4 -71
-13 -150 -21 -178 -19 -66 -19 -43 -1 90 8 61 15 134 15 163 0 28 3 52 7 52 3
0 3 -57 0 -127z m532 55 c-1 -64 -25 -201 -40 -228 -14 -25 -11 29 5 80 8 26
12 77 10 120 -2 76 0 90 16 90 6 0 9 -28 9 -62z m-1166 -29 c3 -14 1 -32 -4
-40 -6 -9 -9 0 -9 30 0 47 6 52 13 10z m116 -45 c6 4 9 12 6 17 -3 5 1 6 10 3
26 -11 13 -39 -20 -42 -22 -2 -34 3 -43 18 -19 31 -3 48 18 20 10 -13 22 -20
29 -16z m-59 -14 c0 -5 -4 -10 -10 -10 -5 0 -10 5 -10 10 0 6 5 10 10 10 6 0
10 -4 10 -10z m20 -60 c0 -5 -4 -10 -10 -10 -5 0 -10 5 -10 10 0 6 5 10 10 10
6 0 10 -4 10 -10z m427 -82 c-3 -8 -6 -5 -6 6 -1 11 2 17 5 13 3 -3 4 -12 1
-19z m-487 -2 c0 -3 -13 -11 -30 -20 -25 -12 -30 -12 -30 -1 0 8 12 16 28 18
15 2 28 5 30 6 1 0 2 -1 2 -3z"/>
<path d="M812 1230 c0 -14 2 -19 5 -12 2 6 2 18 0 25 -3 6 -5 1 -5 -13z"/>
<path d="M810 1108 c-22 -10 -23 -12 -6 -15 10 -3 26 2 34 11 19 18 8 20 -28
4z"/>
<path d="M839 1028 c-11 -8 -11 -9 2 -5 9 3 22 0 28 -6 8 -8 11 -8 11 0 0 16
-25 23 -41 11z"/>
<path d="M778 983 c7 -3 16 -2 19 1 4 3 -2 6 -13 5 -11 0 -14 -3 -6 -6z"/>
</g>
</svg>
